# File created by Blade
# Date/Time:  Wed Apr 08 14:55:03 2015
# Frame Rate: 120.000 fps
#------------------------------------------------------
:FULLY-SPECIFIED
:DEGREES
2224
root 6.692119 32.702322 1.399386 57.244071 -13.660179 -24.641163
Spine -11.167169 -4.953328 8.823178
Head -33.275377 15.618251 16.957853
LeftShoulder -11.807527 31.549742 21.507252
LeftArm 75.865277 -6.008221 -71.906043
LeftForeArm -8.968304 0.000000 128.329498
LeftHand 6.971699 0.000000 -5.689874
LeftHandThumb1 -26.253704 0.000000 33.147579
RightShoulder -0.185662 2.110373 -18.955923
RightArm 12.950153 -10.236541 83.705235
RightForeArm -0.465952 -0.000000 128.388410
RightHand 11.917931 -0.000000 -1.691030
RightHandThumb1 -24.326973 -0.000000 -32.862282
LeftUpLeg -68.545363 11.540272 17.802798
LeftLeg 25.810702 -0.000000 -0.000000
LeftFoot -9.255394 17.255665 -9.274066
LeftToeBase -8.568695 -0.000000 0.000000
RightUpLeg -56.060805 -12.894729 -13.260923
RightLeg 130.065964 -0.000000 -0.000000
RightFoot 5.796729 11.536399 17.047338
RightToeBase 3.223873 -0.000000 -0.000000
2225
root 6.750855 32.750916 1.405326 58.355507 -13.251378 -25.574599
Spine -11.313119 -4.544498 9.924461
Head -34.480514 16.294731 16.774665
LeftShoulder -12.161795 31.994267 21.508557
LeftArm 75.857300 -6.393864 -72.319895
LeftForeArm -8.899426 -0.000000 128.824638
LeftHand 7.018630 -0.000000 -5.638270
LeftHandThumb1 -26.253704 0.000000 33.147579
RightShoulder -0.252239 2.347473 -18.978303
RightArm 13.029840 -10.300862 83.305457
RightForeArm -0.408834 -0.000000 128.473820
RightHand 11.892252 -0.000000 -1.633668
RightHandThumb1 -24.326973 -0.000000 -32.862282
LeftUpLeg -69.156863 12.282621 18.472487
LeftLeg 25.520668 -0.000000 -0.000000
LeftFoot -9.006811 17.242589 -9.228552
LeftToeBase -8.708521 -0.000000 0.000000
RightUpLeg -55.095295 -13.699761 -15.185966
RightLeg 130.953407 -0.000000 -0.000000
RightFoot 6.257081 10.922660 16.301471
RightToeBase 4.200940 -0.000000 -0.000000
2226
root 6.803505 32.802506 1.410007 59.474127 -12.791818 -26.563223
Spine -11.429821 -4.049143 11.070833
Head -35.754527 16.948453 16.596757
LeftShoulder -12.501609 32.480940 21.555791
LeftArm 75.758485 -6.823317 -72.819176
LeftForeArm -8.986353 -0.000000 129.377416
LeftHand 6.905707 -0.000000 -5.684905
LeftHandThumb1 -26.253704 0.000000 33.147579
RightShoulder -0.323749 2.554976 -18.986835
RightArm 13.142637 -10.339808 82.858437
RightForeArm -0.468799 -0.000000 128.569785
RightHand 11.903953 -0.000000 -1.506723
RightHandThumb1 -24.326973 -0.000000 -32.862282
LeftUpLeg -69.771761 13.130045 19.127247
LeftLeg 25.240667 -0.000000 -0.000000
LeftFoot -8.750307 17.195031 -9.031578
LeftToeBase -8.441058 -0.000000 0.000000
RightUpLeg -53.985230 -14.435939 -17.154882
RightLeg 131.626820 -0.000000 -0.000000
RightFoot 6.528735 10.008410 15.542098
RightToeBase 5.397279 -0.000000 -0.000000
2227
root 6.844321 32.859431 1.410419 60.556459 -12.307391 -27.675739
Spine -11.428337 -3.451835 12.234336
Head -37.098438 17.702058 16.488609
LeftShoulder -12.846563 32.992625 21.715018
LeftArm 75.478270 -7.294074 -73.373755
LeftForeArm -9.187747 -0.000000 129.980976
LeftHand 6.915089 -0.000000 -5.609248
LeftHandThumb1 -26.253704 0.000000 33.147579
RightShoulder -0.395941 2.797384 -18.929949
RightArm 13.298448 -10.395849 82.317659
RightForeArm -0.340469 -0.000000 128.661924
RightHand 11.830059 -0.000000 -1.509402
RightHandThumb1 -24.326973 -0.000000 -32.862282
LeftUpLeg -70.330333 14.096710 19.877722
LeftLeg 25.045285 -0.000000 -0.000000
LeftFoot -8.461830 17.119142 -8.987864
LeftToeBase -8.668639 -0.000000 0.000000
RightUpLeg -52.717575 -14.979400 -19.138557
RightLeg 132.090719 -0.000000 -0.000000
RightFoot 6.541423 8.808961 15.139516
RightToeBase 6.642915 -0.000000 -0.000000
2228
root 6.883810 32.914138 1.410256 61.704025 -11.791226 -28.695407
Spine -11.556254 -2.878890 13.358695
Head -38.437960 18.463683 16.397914
LeftShoulder -13.153329 33.539659 21.965890
LeftArm 74.974119 -7.776466 -74.043421
LeftForeArm -9.580400 -0.000000 130.655201
LeftHand 6.875234 0.000000 -5.376755
LeftHandThumb1 -26.253704 0.000000 33.147579
RightShoulder -0.489227 2.995695 -18.850704
RightArm 13.503982 -10.477507 81.706404
RightForeArm -0.264889 0.000000 128.762298
RightHand 11.786725 -0.000000 -1.548392
RightHandThumb1 -24.326973 -0.000000 -32.862282
LeftUpLeg -71.022250 15.067621 20.525195
LeftLeg 24.877646 -0.000000 -0.000000
LeftFoot -8.224918 16.924407 -9.171257
LeftToeBase -8.857622 -0.000000 0.000000
RightUpLeg -51.332767 -15.585164 -21.265054
RightLeg 132.322351 -0.000000 -0.000000
RightFoot 6.168915 7.270008 14.934088
RightToeBase 7.502453 -0.000000 -0.000000
2229
root 6.918109 32.967290 1.413550 62.785807 -11.151810 -29.653162
Spine -11.640347 -2.400531 14.559401
Head -39.828400 19.282412 16.283016
LeftShoulder -13.523641 34.132473 22.209509
LeftArm 74.336285 -8.268855 -74.774244
LeftForeArm -10.074859 -0.000000 131.353552
LeftHand 6.897210 0.000000 -5.446778
LeftHandThumb1 -26.253704 0.000000 33.147579
RightShoulder -0.622541 3.261837 -18.740291
RightArm 13.741879 -10.610290 80.982417
RightForeArm -0.147749 -0.000000 128.831404
RightHand 11.773920 -0.000000 -1.416969
RightHandThumb1 -24.326973 -0.000000 -32.862282
LeftUpLeg -71.722858 16.113293 21.025637
LeftLeg 24.621899 -0.000000 -0.000000
LeftFoot -7.920757 16.331162 -9.333798
LeftToeBase -9.109764 -0.000000 0.000000
RightUpLeg -49.643641 -16.205410 -23.383576
RightLeg 132.232017 -0.000000 -0.000000
RightFoot 5.364948 5.237364 14.454835
RightToeBase 6.339610 -0.000000 -0.000000
2230
root 6.940407 33.023608 1.411709 63.844788 -10.445292 -30.599291
Spine -11.698416 -1.941446 15.765164
Head -41.271974 20.111753 16.208108
LeftShoulder -13.910005 34.782057 22.453136
LeftArm 73.589798 -8.880180 -75.545816
LeftForeArm -10.764336 -0.000000 132.092810
LeftHand 6.851053 0.000000 -5.155394
LeftHandThumb1 -26.253704 0.000000 33.147579
RightShoulder -0.793627 3.600502 -18.579388
RightArm 13.998028 -10.808146 80.193896
RightForeArm 0.058083 -0.000000 128.891070
RightHand 11.704838 -0.000000 -1.391225
RightHandThumb1 -24.326973 -0.000000 -32.862282
LeftUpLeg -72.420376 17.170316 21.561471
LeftLeg 24.357795 -0.000000 -0.000000
LeftFoot -7.575367 15.700280 -9.706001
LeftToeBase -9.616271 -0.000000 0.000000
RightUpLeg -47.801847 -16.792906 -25.495278
RightLeg 131.959103 -0.000000 -0.000000
RightFoot 3.896713 3.063517 14.673801
RightToeBase 7.914241 -0.000000 -0.000000
2231
root 6.951818 33.094836 1.405577 64.976275 -9.768897 -31.745207
Spine -11.706802 -1.304588 16.960968
Head -42.792717 21.040484 16.213758
LeftShoulder -14.419053 35.499382 22.622968
LeftArm 72.752516 -9.552787 -76.324898
LeftForeArm -11.545993 -0.000000 132.850363
LeftHand 6.892653 0.000000 -4.949479
LeftHandThumb1 -26.253704 0.000000 33.147579
RightShoulder -0.924961 3.949188 -18.282552
RightArm 14.319209 -11.044263 79.278482
RightForeArm 0.121315 -0.000000 128.989280
RightHand 11.602432 -0.000000 -1.452629
RightHandThumb1 -24.326973 -0.000000 -32.862282
LeftUpLeg -73.191989 18.557255 21.964001
LeftLeg 24.187343 -0.000000 -0.000000
LeftFoot -7.154939 15.030740 -9.884413
LeftToeBase -9.745852 -0.000000 0.000000
RightUpLeg -46.175757 -17.384050 -27.360673
RightLeg 131.525795 -0.000000 -0.000000
RightFoot 2.340264 0.388202 14.031436
RightToeBase 8.359426 -0.000000 -0.000000
2232
root 6.961832 33.161749 1.403230 66.016520 -9.056273 -32.710684
Spine -11.682374 -0.825631 18.107282
Head -44.354203 21.896463 16.197833
LeftShoulder -15.051030 36.293189 22.619925
LeftArm 71.884517 -10.310911 -77.035505
LeftForeArm -12.389444 -0.000000 133.582439
LeftHand 6.899979 0.000000 -4.490632
LeftHandThumb1 -26.253704 0.000000 33.147579
RightShoulder -1.118981 4.323127 -17.958553
RightArm 14.720921 -11.358606 78.257824
RightForeArm 0.280755 -0.000000 129.058521
RightHand 11.595669 -0.000000 -1.324929
RightHandThumb1 -24.326973 -0.000000 -32.862282
LeftUpLeg -73.968871 19.787944 22.254390
LeftLeg 23.948270 -0.000000 -0.000000
LeftFoot -6.709514 14.353814 -10.081562
LeftToeBase -9.738993 -0.000000 0.000000
RightUpLeg -44.247674 -18.017867 -29.343842
RightLeg 130.838960 -0.000000 -0.000000
RightFoot 0.658923 -2.501813 12.699914
RightToeBase 7.702999 -0.000000 -0.000000
2233
root 6.972230 33.221918 1.398513 66.948110 -8.382651 -33.484094
Spine -11.626752 -0.477312 19.110611
Head -45.885779 22.684955 16.255454
LeftShoulder -15.718311 37.134420 22.546686
LeftArm 70.915865 -11.206319 -77.714173
LeftForeArm -13.366382 -0.000000 134.300565
LeftHand 6.978197 -0.000000 -3.948592
LeftHandThumb1 -26.253704 0.000000 33.147579
RightShoulder -1.276941 4.739882 -17.624697
RightArm 15.093161 -11.621465 77.224913
RightForeArm 0.308532 -0.000000 129.163274
RightHand 11.442411 -0.000000 -1.197815
RightHandThumb1 -24.326973 -0.000000 -32.862282
LeftUpLeg -74.770448 20.860278 22.364397
LeftLeg 23.699923 -0.000000 -0.000000
LeftFoot -6.200493 13.735258 -10.179974
LeftToeBase -9.915948 -0.000000 0.000000
RightUpLeg -42.037887 -18.681156 -31.539974
RightLeg 129.917762 -0.000000 -0.000000
RightFoot -0.582755 -5.341864 10.641894
RightToeBase 6.693803 -0.000000 -0.000000
2234
root 6.990724 33.281167 1.384400 67.820126 -7.866578 -34.161018
Spine -11.521639 -0.153875 19.868571
Head -47.367979 23.487387 16.333095
LeftShoulder -16.403025 38.017429 22.435386
LeftArm 69.916819 -12.088599 -78.388842
LeftForeArm -14.349076 -0.000000 134.900701
LeftHand 7.288186 -0.000000 -3.122635
LeftHandThumb1 -26.253704 0.000000 33.147579
RightShoulder -1.351858 5.098968 -17.236748
RightArm 15.550328 -11.722054 76.144314
RightForeArm 0.033424 -0.000000 129.291394
RightHand 11.192674 0.000000 -0.809968
RightHandThumb1 -24.326973 -0.000000 -32.862282
LeftUpLeg -75.533322 21.858444 22.297972
LeftLeg 23.398659 -0.000000 -0.000000
LeftFoot -5.647388 13.230528 -10.233422
LeftToeBase -10.180028 -0.000000 0.000000
RightUpLeg -39.710693 -19.226745 -33.996183
RightLeg 128.817360 -0.000000 -0.000000
RightFoot -1.410731 -7.931609 8.664956
RightToeBase 6.201063 -0.000000 -0.000000
